<svg width="781" height="434" xmlns="http://www.w3.org/2000/svg" xmlns:xlink="http://www.w3.org/1999/xlink" overflow="hidden"><defs><filter id="fx0" x="-10%" y="-10%" width="120%" height="120%" filterUnits="userSpaceOnUse" primitiveUnits="userSpaceOnUse"><feComponentTransfer color-interpolation-filters="sRGB"><feFuncR type="discrete" tableValues="0 0"/><feFuncG type="discrete" tableValues="0 0"/><feFuncB type="discrete" tableValues="0 0"/><feFuncA type="linear" slope="0.431373" intercept="0"/></feComponentTransfer><feGaussianBlur stdDeviation="1.77778 1.77778"/></filter><clipPath id="clip1"><rect x="321" y="176" width="781" height="434"/></clipPath><clipPath id="clip2"><path d="M460.5 364.5 460.5 438.5 470.5 438.5 470.5 364.5ZM321 176 1102 176 1102 610 321 610Z" fill-rule="evenodd" clip-rule="evenodd"/></clipPath><clipPath id="clip3"><rect x="-2" y="-2" width="19" height="19"/></clipPath><clipPath id="clip4"><rect x="0" y="0" width="15" height="15"/></clipPath></defs><g clip-path="url(#clip1)" transform="translate(-321 -176)"><rect x="411.5" y="196.5" width="5" height="149" stroke="#000000" stroke-linejoin="round" stroke-miterlimit="10" fill="#FFFFFF"/><path d="M395.5 267.5 402 267.5 405.5 271 402 274.5 395.5 274.5 399 271Z" stroke="#000000" stroke-miterlimit="8" fill="#FFFFFF" fill-rule="evenodd"/><path d="M422.5 267.5 429 267.5 432.5 271 429 274.5 422.5 274.5 426 271Z" stroke="#7F7F7F" stroke-miterlimit="8" fill="#FFFFFF" fill-rule="evenodd"/><path d="M444.5 349.5 444.5 357 441 360.5 437.5 357 437.5 349.5 441 353Z" stroke="#000000" stroke-miterlimit="8" fill-rule="evenodd"/><rect x="435.5" y="364.5" width="10" height="74" stroke="#7F7F7F" stroke-linejoin="round" stroke-miterlimit="10" fill="#7F7F7F"/><path d="M447.5 397.5 455 397.5 458.5 401 455 404.5 447.5 404.5 451 401Z" stroke="#7F7F7F" stroke-miterlimit="8" fill="#FFFFFF" fill-rule="evenodd"/><path d="M469.5 442.5 469.5 448.5 465.5 452.5 461.5 448.5 461.5 442.5 465.5 446.5Z" stroke="#000000" stroke-miterlimit="8" fill-rule="evenodd"/><rect x="456.5" y="457.5" width="17" height="38" stroke="#7F7F7F" stroke-linejoin="round" stroke-miterlimit="10" fill="#7F7F7F"/><path d="M476.5 472.5 482.5 472.5 486.5 476.5 482.5 480.5 476.5 480.5 480.5 476.5Z" stroke="#7F7F7F" stroke-miterlimit="8" fill="#FFFFFF" fill-rule="evenodd"/><rect x="437.5" y="196.5" width="6" height="149" stroke="#000000" stroke-linejoin="round" stroke-miterlimit="10" fill="#FFFFFF"/><g clip-path="url(#clip2)"><g clip-path="url(#clip3)" filter="url(#fx0)" transform="translate(458 399)"><g clip-path="url(#clip4)"><rect x="7.45004" y="7.46338" width="0.0999999" height="0.74" stroke="#000000" stroke-linejoin="round" stroke-miterlimit="10" fill="#FFFFFF"/></g></g></g><rect x="460.5" y="364.5" width="10" height="74" stroke="#000000" stroke-linejoin="round" stroke-miterlimit="10" fill="#FFFFFF"/><rect x="489.5" y="457.5" width="16" height="38" stroke="#000000" stroke-linejoin="round" stroke-miterlimit="10" fill="#FFFFFF"/><path d="M501.5 498.5 501.5 505.5 497.5 509.5 493.5 505.5 493.5 498.5 497.5 502.5Z" stroke="#000000" stroke-miterlimit="8" fill-rule="evenodd"/><rect x="486.5" y="511.5" width="23" height="27" stroke="#7F7F7F" stroke-linejoin="round" stroke-miterlimit="10" fill="#7F7F7F"/><rect x="523.5" y="511.5" width="23" height="27" stroke="#000000" stroke-linejoin="round" stroke-miterlimit="10" fill="#FFFFFF"/><path d="M511.5 521.5 518 521.5 521.5 525 518 528.5 511.5 528.5 515 525Z" stroke="#7F7F7F" stroke-miterlimit="8" fill="#FFFFFF" fill-rule="evenodd"/><path d="M538.5 540.5 538.5 548 535 551.5 531.5 548 531.5 540.5 535 544Z" stroke="#000000" stroke-miterlimit="8" fill-rule="evenodd"/><rect x="519.5" y="553.5" width="32" height="10" stroke="#7F7F7F" stroke-linejoin="round" stroke-miterlimit="10" fill="#7F7F7F"/><rect x="568.5" y="553.5" width="33" height="10" stroke="#000000" stroke-linejoin="round" stroke-miterlimit="10" fill="#FFFFFF"/><path d="M555.5 554.5 561.5 554.5 565.5 558.5 561.5 562.5 555.5 562.5 559.5 558.5Z" stroke="#7F7F7F" stroke-miterlimit="8" fill="#FFFFFF" fill-rule="evenodd"/><rect x="725.5" y="511.5" width="22" height="27" stroke="#000000" stroke-linejoin="round" stroke-miterlimit="10" fill="#7F7F7F"/><rect x="763.5" y="511.5" width="22" height="27" stroke="#000000" stroke-linejoin="round" stroke-miterlimit="10" fill="#FFFFFF"/><path d="M750.5 521.5 757 521.5 760.5 525 757 528.5 750.5 528.5 754 525Z" stroke="#7F7F7F" stroke-miterlimit="8" fill="#FFFFFF" fill-rule="evenodd"/><rect x="800.5" y="511.5" width="23" height="27" stroke="#000000" stroke-linejoin="round" stroke-miterlimit="10" fill="#FFFFFF"/><path d="M788.5 521.5 795 521.5 798.5 525 795 528.5 788.5 528.5 792 525Z" stroke="#7F7F7F" stroke-miterlimit="8" fill="#FFFFFF" fill-rule="evenodd"/><path d="M0 0 6.5 0 10 3.5 6.5 7 0 7 3.5 3.5Z" stroke="#7F7F7F" stroke-miterlimit="8" fill="#7F7F7F" fill-rule="evenodd" transform="matrix(-6.12323e-17 -1 -1 6.12323e-17 639.5 576.5)"/><rect x="803.5" y="457.5" width="17" height="38" stroke="#000000" stroke-linejoin="round" stroke-miterlimit="10" fill="#7F7F7F"/><path d="M0 0 6.5 0 10 3.5 6.5 7 0 7 3.5 3.5Z" stroke="#7F7F7F" stroke-miterlimit="8" fill="#7F7F7F" fill-rule="evenodd" transform="matrix(-6.12323e-17 -1 -1 6.12323e-17 815.5 508.5)"/><rect x="837.5" y="457.5" width="16" height="38" stroke="#000000" stroke-linejoin="round" stroke-miterlimit="10" fill="#FFFFFF"/><path d="M823.5 472.5 830.5 472.5 834.5 476.5 830.5 480.5 823.5 480.5 827.5 476.5Z" stroke="#7F7F7F" stroke-miterlimit="8" fill="#FFFFFF" fill-rule="evenodd"/><path d="M0 0 6.5 0 10 3.5 6.5 7 0 7 3.5 3.5Z" stroke="#7F7F7F" stroke-miterlimit="8" fill="#7F7F7F" fill-rule="evenodd" transform="matrix(-6.12323e-17 -1 -1 6.12323e-17 881.5 452.5)"/><rect x="872.5" y="363.5" width="11" height="74" stroke="#000000" stroke-linejoin="round" stroke-miterlimit="10" fill="#7F7F7F"/><rect x="870.5" y="457.5" width="16" height="38" stroke="#000000" stroke-linejoin="round" stroke-miterlimit="10" fill="#FFFFFF"/><path d="M856.5 472.5 863.5 472.5 867.5 476.5 863.5 480.5 856.5 480.5 860.5 476.5Z" stroke="#7F7F7F" stroke-miterlimit="8" fill="#FFFFFF" fill-rule="evenodd"/><rect x="898.5" y="363.5" width="10" height="74" stroke="#000000" stroke-linejoin="round" stroke-miterlimit="10" fill="#FFFFFF"/><path d="M885.5 396.5 892.5 396.5 896.5 400.5 892.5 404.5 885.5 404.5 889.5 400.5Z" stroke="#7F7F7F" stroke-miterlimit="8" fill="#FFFFFF" fill-rule="evenodd"/><rect x="923.5" y="363.5" width="10" height="74" stroke="#000000" stroke-linejoin="round" stroke-miterlimit="10" fill="#FFFFFF"/><path d="M910.5 396.5 917.5 396.5 921.5 400.5 917.5 404.5 910.5 404.5 914.5 400.5Z" stroke="#7F7F7F" stroke-miterlimit="8" fill="#FFFFFF" fill-rule="evenodd"/><path d="M0 0 6 0 10 4 6 8 0 8 4 4Z" stroke="#7F7F7F" stroke-miterlimit="8" fill="#7F7F7F" fill-rule="evenodd" transform="matrix(-6.12323e-17 -1 -1 6.12323e-17 932.5 359.5)"/><rect x="925.5" y="195.5" width="6" height="149" stroke="#000000" stroke-linejoin="round" stroke-miterlimit="10" fill="#7F7F7F"/><rect x="977.5" y="195.5" width="6" height="149" stroke="#000000" stroke-linejoin="round" stroke-miterlimit="10" fill="#FFFFFF"/><path d="M962.5 266.5 968.5 266.5 972.5 270.5 968.5 274.5 962.5 274.5 966.5 270.5Z" stroke="#7F7F7F" stroke-miterlimit="8" fill="#FFFFFF" fill-rule="evenodd"/><path d="M988.5 266.5 994.5 266.5 998.5 270.5 994.5 274.5 988.5 274.5 992.5 270.5Z" stroke="#000000" stroke-miterlimit="8" fill="#FFFFFF" fill-rule="evenodd"/><rect x="1003.5" y="195.5" width="4" height="149" stroke="#000000" stroke-linejoin="round" stroke-miterlimit="10"/><rect x="951.5" y="195.5" width="5" height="149" stroke="#000000" stroke-linejoin="round" stroke-miterlimit="10" fill="#FFFFFF"/><path d="M935.5 266.5 942.5 266.5 946.5 270.5 942.5 274.5 935.5 274.5 939.5 270.5Z" stroke="#7F7F7F" stroke-miterlimit="8" fill="#FFFFFF" fill-rule="evenodd"/><path d="M0.00130004-0.999999 475.531-0.381791 475.528 1.61821-0.00130004 0.999999ZM474.203-3.38352 482.197 0.626877 474.192 4.61647Z" transform="matrix(1 0 0 -1 443 270.627)"/><path d="M0.00180492-0.999998 395.504-0.286149 395.5 1.71385-0.00180492 0.999998ZM394.174-3.28855 402.167 0.725879 394.16 4.71143Z" transform="matrix(1 0 0 -1 470 400.726)"/><path d="M505 475 796.361 475 796.361 477 505 477ZM795.028 472 803.028 476 795.028 480Z"/><path d="M0.00318156-0.999995 172.914-0.449867 172.907 1.55012-0.00318156 0.999995ZM171.59-3.45409 179.577 0.571339 171.565 4.54587Z" transform="matrix(1 0 0 -1 546 524.571)"/><text fill="#434343" font-family="Roboto,Roboto_MSFontService,sans-serif" font-weight="400" font-size="11" transform="translate(720.151 506)">256x2<tspan font-size="11" x="45.2649" y="43">256</tspan><tspan font-size="11" x="281.314" y="-315">3</tspan><tspan font-size="11" x="78.3411" y="-54">128x2</tspan><tspan font-size="11" x="117.565" y="3">128</tspan><tspan font-size="11" x="145.787" y="-146">64x2</tspan><tspan font-size="11" x="176.266" y="-58">64</tspan><tspan font-size="11" x="195.44" y="-315">32x2</tspan><tspan font-size="11" x="227.158" y="-315">32</tspan></text><rect x="458.5" y="295.5" width="452" height="37" stroke="#44546A" stroke-linejoin="round" stroke-miterlimit="10" fill="#FFFFFF"/><path d="M0.00984204-0.999951 25.3435-0.750604 25.3238 1.2493-0.00984204 0.999951ZM24.0398-3.76358 32 0.314961 23.961 4.23603Z" transform="matrix(1 -1.22465e-16 -1.22465e-16 -1 787 313.315)"/><text fill="#434343" font-family="Times New Roman,Times New Roman_MSFontService,sans-serif" font-weight="400" font-size="11" transform="translate(678.353 316)">Convolutional Pooling<tspan font-size="11" x="150.435" y="0">Skip connection</tspan><tspan font-size="11" x="-100.333" y="0">ConvTranspose</tspan></text><rect x="942.5" y="456.5" width="4" height="39" stroke="#44546A" stroke-linejoin="round" stroke-miterlimit="10" fill="#FFFFFF"/><path d="M962.5 473.5 1074 473.5 1076.5 476 1074 478.5 962.5 478.5 965 476Z" stroke="#000000" stroke-miterlimit="8" fill-rule="evenodd"/><path d="M1071.5 475.5 1071.5 338 1074 335.5 1076.5 338 1076.5 475.5 1074 473Z" stroke="#000000" stroke-miterlimit="8" fill-rule="evenodd"/><rect x="322.5" y="255.266" width="5.23416" height="78.2343" fill="#FFFFFF"/><path d="M327.734 255.266 360.5 222.5 360.5 300.734 327.734 333.5Z" fill="#CDCDCD" fill-rule="evenodd"/><path d="M322.5 255.266 355.266 222.5 360.5 222.5 327.734 255.266Z" fill="#FFFFFF" fill-rule="evenodd"/><path d="M322.5 255.266 355.266 222.5 360.5 222.5 360.5 300.734 327.734 333.5 322.5 333.5ZM322.5 255.266 327.734 255.266 360.5 222.5M327.734 255.266 327.734 333.5" stroke="#000000" stroke-miterlimit="8" fill="none" fill-rule="evenodd"/><text fill="#434343" font-family="Roboto,Roboto_MSFontService,sans-serif" font-weight="400" font-size="11" transform="translate(407.569 191)">32</text><rect x="384.5" y="196.5" width="6" height="149" stroke="#000000" stroke-linejoin="round" stroke-miterlimit="10"/><text fill="#434343" font-family="Roboto,Roboto_MSFontService,sans-serif" font-weight="400" font-size="11" transform="translate(435.814 191)">32<tspan font-size="11" x="-1.9075" y="258">64</tspan><tspan font-size="11" x="23.8316" y="171">64</tspan><tspan fill="#000000" font-family="Times New Roman,Times New Roman_MSFontService,sans-serif" font-size="8" x="-19.2908" y="172">2,2,1s</tspan><tspan fill="#000000" font-family="Times New Roman,Times New Roman_MSFontService,sans-serif" font-size="8" x="8.28262" y="265">2,2,2s</tspan><tspan font-size="11" x="19.5699" y="315">128</tspan><tspan font-size="11" x="52.116" y="261">128</tspan><tspan font-size="11" x="52.0362" y="358">256</tspan><tspan font-size="11" x="89.9696" y="316">256</tspan><tspan font-size="11" x="90.316" y="386">320</tspan><tspan font-size="11" x="139.449" y="409">320</tspan></text><path d="M588.5 566.5 588.5 573 585 576.5 581.5 573 581.5 566.5 585 570Z" stroke="#000000" stroke-miterlimit="8" fill-rule="evenodd"/><rect x="568.5" y="579.5" width="33" height="6" stroke="#7F7F7F" stroke-linejoin="round" stroke-miterlimit="10" fill="#7F7F7F"/><rect x="619.5" y="579.5" width="33" height="6" stroke="#000000" stroke-linejoin="round" stroke-miterlimit="10" fill="#FFFFFF"/><path d="M605.5 578.5 612.5 578.5 616.5 582.5 612.5 586.5 605.5 586.5 609.5 582.5Z" stroke="#7F7F7F" stroke-miterlimit="8" fill="#FFFFFF" fill-rule="evenodd"/><text fill="#434343" font-family="Roboto,Roboto_MSFontService,sans-serif" font-weight="400" font-size="11" transform="translate(625.481 600)">320<tspan font-size="11" x="-241.994" y="-409">1</tspan></text><rect x="619.5" y="553.5" width="33" height="10" stroke="#000000" stroke-linejoin="round" stroke-miterlimit="10" fill="#7F7F7F"/><text font-family="Times New Roman,Times New Roman_MSFontService,sans-serif" font-weight="400" font-size="8" transform="translate(557.776 577)">2,2,1s<tspan font-size="8" x="-84.9869" y="-67">2,2,2s</tspan><tspan font-size="8" x="-47.6236" y="-26">2,2,2s</tspan></text><path d="M502.5 204.334C502.5 198.903 506.903 194.5 512.334 194.5L869.667 194.5C875.097 194.5 879.5 198.903 879.5 204.334L879.5 243.666C879.5 249.097 875.097 253.5 869.667 253.5L512.334 253.5C506.903 253.5 502.5 249.097 502.5 243.666Z" stroke="#000000" stroke-width="1.33333" stroke-miterlimit="8" stroke-dasharray="4 1.33333" fill="#FFFFFF" fill-rule="evenodd"/><rect x="516.5" y="214.5" width="88" height="22" stroke="#000000" stroke-linejoin="round" stroke-miterlimit="10" fill="none"/><text fill="#434343" font-family="Times New Roman,Times New Roman_MSFontService,sans-serif" font-weight="400" font-size="11" transform="translate(526.315 229)">Conv <tspan font-family="Cambria Math,Cambria Math_MSFontService,sans-serif" font-size="11" x="25.8334" y="0">3</tspan><tspan font-family="Cambria Math,Cambria Math_MSFontService,sans-serif" font-size="11" x="34.04" y="0">×</tspan><tspan font-family="Cambria Math,Cambria Math_MSFontService,sans-serif" font-size="11" x="44.08" y="0">3</tspan><tspan font-family="Cambria Math,Cambria Math_MSFontService,sans-serif" font-size="11" x="52.2867" y="0">×</tspan><tspan font-family="Cambria Math,Cambria Math_MSFontService,sans-serif" font-size="11" x="62.3267" y="0">3</tspan><tspan fill="#000000" font-family="DengXian,DengXian_MSFontService,sans-serif" font-size="15" x="-29.9864" y="1">=</tspan></text><rect x="638.5" y="214.5" width="121" height="22" stroke="#000000" stroke-linejoin="round" stroke-miterlimit="10" fill="none"/><text fill="#434343" font-family="Times New Roman,Times New Roman_MSFontService,sans-serif" font-weight="400" font-size="11" transform="translate(648.44 229)">Instance Normalization</text><path d="M604.5 225.167 631.245 225.167 631.245 225.833 604.5 225.833ZM629.912 222.833 637.912 225.5 629.912 228.167Z"/><rect x="792.5" y="214.5" width="72" height="22" stroke="#000000" stroke-linejoin="round" stroke-miterlimit="10" fill="none"/><text fill="#434343" font-family="Times New Roman,Times New Roman_MSFontService,sans-serif" font-weight="400" font-size="11" transform="translate(803.228 229)">Leaky Relu</text><path d="M759.5 225.167 786.245 225.167 786.245 225.833 759.5 225.833ZM784.912 222.833 792.912 225.5 784.912 228.167Z"/><rect x="670.5" y="553.5" width="33" height="10" stroke="#000000" stroke-linejoin="round" stroke-miterlimit="10" fill="#FFFFFF"/><path d="M656.5 554.5 662.5 554.5 666.5 558.5 662.5 562.5 656.5 562.5 660.5 558.5Z" stroke="#7F7F7F" stroke-miterlimit="8" fill="#FFFFFF" fill-rule="evenodd"/><text fill="#434343" font-family="Roboto,Roboto_MSFontService,sans-serif" font-weight="400" font-size="11" transform="translate(677.902 578)">320</text><path d="M0 0 7 0 11 4 7 8 0 8 4 4Z" stroke="#7F7F7F" stroke-miterlimit="8" fill="#7F7F7F" fill-rule="evenodd" transform="matrix(-6.12323e-17 -1 -1 6.12323e-17 741.5 550.5)"/><text fill="#434343" font-family="Roboto,Roboto_MSFontService,sans-serif" font-weight="400" font-size="11" transform="translate(620.366 547)">320x2</text><rect x="721.5" y="553.5" width="32" height="10" stroke="#000000" stroke-linejoin="round" stroke-miterlimit="10" fill="#FFFFFF"/><path d="M706.5 554.5 713.5 554.5 717.5 558.5 713.5 562.5 706.5 562.5 710.5 558.5Z" stroke="#7F7F7F" stroke-miterlimit="8" fill="#FFFFFF" fill-rule="evenodd"/><text fill="#434343" font-family="Roboto,Roboto_MSFontService,sans-serif" font-weight="400" font-size="11" transform="translate(728.181 578)">320<tspan font-size="11" x="74.5821" y="-29">256</tspan><tspan font-size="11" x="139.448" y="-69">128</tspan><tspan font-size="11" x="193.673" y="-130">64</tspan><tspan font-size="11" x="245.87" y="-387">32</tspan></text><rect x="1037.5" y="243.99" width="5.50964" height="76.5097" fill="#FFFFFF"/><path d="M1043.01 243.99 1077.5 209.5 1077.5 286.01 1043.01 320.5Z" fill="#CDCDCD" fill-rule="evenodd"/><path d="M1037.5 243.99 1071.99 209.5 1077.5 209.5 1043.01 243.99Z" fill="#FFFFFF" fill-rule="evenodd"/><path d="M1037.5 243.99 1071.99 209.5 1077.5 209.5 1077.5 286.01 1043.01 320.5 1037.5 320.5ZM1037.5 243.99 1043.01 243.99 1077.5 209.5M1043.01 243.99 1043.01 320.5" stroke="#000000" stroke-miterlimit="8" fill="none" fill-rule="evenodd"/><rect x="1049.5" y="246.128" width="5.37183" height="77.3719" fill="#FFFFFF"/><path d="M1054.87 246.128 1088.5 212.5 1088.5 289.872 1054.87 323.5Z" fill="#CDCDCD" fill-rule="evenodd"/><path d="M1049.5 246.128 1083.13 212.5 1088.5 212.5 1054.87 246.128Z" fill="#FFFFFF" fill-rule="evenodd"/><path d="M1049.5 246.128 1083.13 212.5 1088.5 212.5 1088.5 289.872 1054.87 323.5 1049.5 323.5ZM1049.5 246.128 1054.87 246.128 1088.5 212.5M1054.87 246.128 1054.87 323.5" stroke="#000000" stroke-miterlimit="8" fill="none" fill-rule="evenodd"/><rect x="1061.5" y="252.99" width="5.50964" height="76.5097" fill="#FFFFFF"/><path d="M1067.01 252.99 1101.5 218.5 1101.5 295.01 1067.01 329.5Z" fill="#CDCDCD" fill-rule="evenodd"/><path d="M1061.5 252.99 1095.99 218.5 1101.5 218.5 1067.01 252.99Z" fill="#FFFFFF" fill-rule="evenodd"/><path d="M1061.5 252.99 1095.99 218.5 1101.5 218.5 1101.5 295.01 1067.01 329.5 1061.5 329.5ZM1061.5 252.99 1067.01 252.99 1101.5 218.5M1067.01 252.99 1067.01 329.5" stroke="#000000" stroke-miterlimit="8" fill="none" fill-rule="evenodd"/><path d="M927.5 473.5 935 473.5 938.5 477 935 480.5 927.5 480.5 931 477Z" stroke="#000000" stroke-miterlimit="8" fill="#FFFFFF" fill-rule="evenodd"/><rect x="971.5" y="363.5" width="3" height="75" stroke="#44546A" stroke-linejoin="round" stroke-miterlimit="10" fill="#FFFFFF"/><path d="M957.5 397.5 965 397.5 968.5 401 965 404.5 957.5 404.5 961 401Z" stroke="#000000" stroke-miterlimit="8" fill="#FFFFFF" fill-rule="evenodd"/><path d="M989.5 398.5 1069 398.5 1071.5 401 1069 403.5 989.5 403.5 992 401Z" stroke="#000000" stroke-miterlimit="8" fill-rule="evenodd"/><path d="M666.5 307.5 666.5 314.5 662.5 318.5 658.5 314.5 658.5 307.5 662.5 311.5Z" stroke="#000000" stroke-miterlimit="8" fill-rule="evenodd"/><path d="M0 0 7 0 11 4 7 8 0 8 4 4Z" stroke="#7F7F7F" stroke-miterlimit="8" fill="#7F7F7F" fill-rule="evenodd" transform="matrix(-6.12323e-17 -1 -1 6.12323e-17 565.5 318.5)"/><text fill="#434343" font-family="Times New Roman,Times New Roman_MSFontService,sans-serif" font-weight="400" font-size="11" transform="translate(491.14 316)">Convolution</text><path d="M468.5 309.5 476 309.5 479.5 313 476 316.5 468.5 316.5 472 313Z" stroke="#000000" stroke-miterlimit="8" fill="#FFFFFF" fill-rule="evenodd"/><text font-family="Times New Roman,Times New Roman_MSFontService,sans-serif" font-weight="400" font-size="8" transform="translate(390.476 261)">3,3,1k<tspan font-size="8" x="352.557" y="290">2,2,2s</tspan><tspan font-size="8" x="427.166" y="248">2,2,2s</tspan><tspan font-size="8" x="493.298" y="195">2,2,2s</tspan><tspan font-size="8" x="544.243" y="101">2,2,1s</tspan><tspan font-size="8" x="251.505" y="316">2,2,1s</tspan><tspan font-size="8" x="592.403" y="0">1,1,1k</tspan><tspan font-size="8" x="555.525" y="132">1,1,1k</tspan><tspan font-size="8" x="523.286" y="209">1,1,1k</tspan><tspan fill="#434343" font-family="Roboto,Roboto_MSFontService,sans-serif" font-size="11" x="185.719" y="286">320</tspan></text><path d="M480.5 222.5 487 222.5 490.5 226 487 229.5 480.5 229.5 484 226Z" stroke="#7F7F7F" stroke-miterlimit="8" fill="#FFFFFF" fill-rule="evenodd"/><path d="M601 557 612.892 557 612.892 559 601 559ZM611.558 554 619.558 558 611.558 562Z"/></g></svg>